{"asset":{"generator":"FBX2glTF","version":"2.0"},"scene":0,"buffers":[{"byteLength":12736,"uri":"feidie.bin"}],"bufferViews":[{"buffer":0,"byteLength":68,"byteOffset":0},{"buffer":0,"byteLength":272,"byteOffset":68},{"buffer":0,"byteLength":1524,"byteOffset":340,"target":34963},{"buffer":0,"byteLength":2316,"byteOffset":1864,"target":34962},{"buffer":0,"byteLength":2316,"byteOffset":4180,"target":34962},{"buffer":0,"byteLength":1544,"byteOffset":6496,"target":34962},{"buffer":0,"byteLength":1544,"byteOffset":8040,"target":34962},{"buffer":0,"byteLength":3088,"byteOffset":9584,"target":34962},{"buffer":0,"byteLength":64,"byteOffset":12672}],"scenes":[{"name":"Root Scene","nodes":[0]}],"accessors":[{"componentType":5126,"type":"SCALAR","count":17,"bufferView":0,"byteOffset":0,"min":[0],"max":[0.666666686534882]},{"componentType":5126,"type":"VEC4","count":17,"bufferView":1,"byteOffset":0},{"componentType":5123,"type":"SCALAR","count":762,"bufferView":2,"byteOffset":0},{"componentType":5126,"type":"VEC3","count":193,"bufferView":3,"byteOffset":0,"min":[-0.0648201107978821,-0.0648201182484627,-0.0696994289755821],"max":[0.0648201182484627,0.0648201182484627,0.103525906801224]},{"componentType":5126,"type":"VEC3","count":193,"bufferView":4,"byteOffset":0},{"componentType":5126,"type":"VEC2","count":193,"bufferView":5,"byteOffset":0},{"componentType":5123,"type":"VEC4","count":193,"bufferView":6,"byteOffset":0},{"componentType":5126,"type":"VEC4","count":193,"bufferView":7,"byteOffset":0},{"componentType":5126,"type":"MAT4","count":1,"bufferView":8,"byteOffset":0}],"images":[{"name":"feidie.jpg","uri":"feidie.jpg"}],"samplers":[{}],"textures":[{"name":"Map #1","sampler":0,"source":0}],"materials":[{"name":"Material_002","alphaMode":"OPAQUE","extras":{"fromFBX":{"shadingModel":"","isTruePBR":false}},"pbrMetallicRoughness":{"baseColorTexture":{"index":0,"texCoord":0},"baseColorFactor":[1,1,1,1],"metallicFactor":0.200000002980232,"roughnessFactor":0.800000011920929}}],"meshes":[{"name":"Sphere001","primitives":[{"material":0,"mode":4,"attributes":{"JOINTS_0":6,"NORMAL":4,"POSITION":3,"TEXCOORD_0":5,"WEIGHTS_0":7},"indices":2}]}],"skins":[{"joints":[1],"inverseBindMatrices":8,"skeleton":1}],"animations":[{"name":"jump","channels":[{"sampler":0,"target":{"node":1,"path":"rotation"}}],"samplers":[{"input":0,"interpolation":"LINEAR","output":1}]}],"nodes":[{"name":"RootNode","translation":[0,0,0],"rotation":[0,0,0,1],"scale":[1,1,1],"children":[1]},{"name":"Bone001","translation":[2.84480182466407e-11,0.030289126560092,1.32397970364906e-9],"rotation":[0.499665498733521,-0.5003342628479,-0.499665498733521,0.5003342628479],"scale":[0.652482509613037,0.652482509613037,0.652482509613037],"children":[2]},{"name":"Sphere001","translation":[0.0535183846950531,-0.0000715870774001814,4.44089199923895e-18],"rotation":[0.707106649875641,-0.000472940970212221,-0.707106590270996,-0.000472940999316052],"scale":[0.865541577339172,0.865541577339172,0.449404209852219],"mesh":0,"skin":0}]}